<svg xmlns="http://www.w3.org/2000/svg" xmlns:xlink="http://www.w3.org/1999/xlink" width="500" zoomAndPan="magnify" viewBox="0 0 375 374.999991" height="500" preserveAspectRatio="xMidYMid meet" version="1.0"><defs><g/><clipPath id="7c93a555cf"><path d="M 266 132.996094 L 273 132.996094 L 273 156 L 266 156 Z M 266 132.996094 " clip-rule="nonzero"/></clipPath><clipPath id="981d9ed951"><path d="M 238.265625 135 L 301.265625 135 L 301.265625 195.996094 L 238.265625 195.996094 Z M 238.265625 135 " clip-rule="nonzero"/></clipPath></defs><rect x="-37.5" width="450" fill="#ffffff" y="-37.499999" height="449.999989" fill-opacity="1"/><rect x="-37.5" width="450" fill="#ffffff" y="-37.499999" height="449.999989" fill-opacity="1"/><rect x="-37.5" width="450" fill="#000000" y="-37.499999" height="449.999989" fill-opacity="1"/><g fill="#ffffff" fill-opacity="1"><g transform="translate(0.843754, 194.016777)"><g/></g></g><g fill="#ffffff" fill-opacity="1"><g transform="translate(19.628909, 194.016777)"><g><path d="M 2.53125 0.46875 C 1.71875 0.46875 1.0625 0.359375 0.5625 0.140625 C 0.0625 -0.078125 -0.1875 -0.375 -0.1875 -0.75 C -0.1875 -1.1875 0.078125 -1.578125 0.609375 -1.921875 C 1.140625 -2.265625 1.90625 -2.59375 2.90625 -2.90625 C 4.539062 -3.414062 6.046875 -4.171875 7.421875 -5.171875 C 8.804688 -6.171875 10 -7.832031 11 -10.15625 C 12.75 -14.164062 14.359375 -17.921875 15.828125 -21.421875 C 17.304688 -24.929688 18.703125 -28.378906 20.015625 -31.765625 C 21.335938 -35.148438 22.703125 -38.675781 24.109375 -42.34375 C 25.515625 -46.007812 27.003906 -50.003906 28.578125 -54.328125 C 28.890625 -55.203125 29.171875 -56.078125 29.421875 -56.953125 C 29.671875 -57.828125 29.828125 -58.769531 29.890625 -59.78125 C 30.453125 -59.96875 31.015625 -60.15625 31.578125 -60.34375 C 32.140625 -60.53125 32.703125 -60.8125 33.265625 -61.1875 C 33.828125 -61.5625 34.21875 -62.125 34.4375 -62.875 C 34.664062 -63.625 34.875 -64.125 35.0625 -64.375 C 35.125 -64.4375 35.203125 -64.46875 35.296875 -64.46875 C 35.390625 -64.46875 35.46875 -64.40625 35.53125 -64.28125 C 35.65625 -64.03125 35.765625 -63.71875 35.859375 -63.34375 C 35.953125 -62.96875 36.0625 -62.59375 36.1875 -62.21875 C 37.6875 -57.457031 39.25 -52.597656 40.875 -47.640625 C 42.507812 -42.691406 44.09375 -37.914062 45.625 -33.3125 C 47.164062 -28.707031 48.578125 -24.570312 49.859375 -20.90625 C 51.140625 -17.238281 52.15625 -14.28125 52.90625 -12.03125 C 53.789062 -9.519531 54.734375 -7.640625 55.734375 -6.390625 C 56.734375 -5.140625 57.78125 -4.257812 58.875 -3.75 C 59.976562 -3.25 61.15625 -2.875 62.40625 -2.625 C 63.46875 -2.4375 64.25 -2.140625 64.75 -1.734375 C 65.25 -1.328125 65.5 -0.90625 65.5 -0.46875 C 65.5 -0.09375 65.25 0.15625 64.75 0.28125 C 64.25 0.40625 63.59375 0.46875 62.78125 0.46875 C 61.90625 0.46875 60.710938 0.421875 59.203125 0.328125 C 57.703125 0.234375 56.101562 0.140625 54.40625 0.046875 C 52.71875 -0.046875 51.15625 -0.09375 49.71875 -0.09375 C 48.53125 -0.09375 47.304688 -0.09375 46.046875 -0.09375 C 44.796875 -0.09375 43.640625 -0.078125 42.578125 -0.046875 C 41.515625 -0.015625 40.601562 0 39.84375 0 C 39.03125 0 38.375 -0.09375 37.875 -0.28125 C 37.375 -0.46875 37.125 -0.75 37.125 -1.125 C 37.125 -1.5625 37.4375 -1.9375 38.0625 -2.25 C 38.6875 -2.5625 39.40625 -2.78125 40.21875 -2.90625 C 42.289062 -3.226562 43.765625 -3.765625 44.640625 -4.515625 C 45.515625 -5.265625 45.953125 -6.140625 45.953125 -7.140625 C 45.953125 -8.078125 45.75 -9.4375 45.34375 -11.21875 C 44.9375 -13.007812 44.453125 -14.921875 43.890625 -16.953125 C 43.328125 -18.992188 42.796875 -20.800781 42.296875 -22.375 C 42.171875 -22.875 41.9375 -23.171875 41.59375 -23.265625 C 41.25 -23.359375 40.632812 -23.40625 39.75 -23.40625 L 22 -23.40625 C 21.738281 -23.40625 21.46875 -23.296875 21.1875 -23.078125 C 20.90625 -22.859375 20.640625 -22.398438 20.390625 -21.703125 C 20.203125 -21.078125 19.890625 -20.09375 19.453125 -18.75 C 19.015625 -17.40625 18.578125 -15.976562 18.140625 -14.46875 C 17.703125 -12.96875 17.328125 -11.617188 17.015625 -10.421875 C 16.703125 -9.234375 16.546875 -8.484375 16.546875 -8.171875 C 16.546875 -6.796875 17.078125 -5.65625 18.140625 -4.75 C 19.203125 -3.84375 20.488281 -3.195312 22 -2.8125 C 24.0625 -2.25 25.09375 -1.625 25.09375 -0.9375 C 25.09375 -0.5625 24.84375 -0.296875 24.34375 -0.140625 C 23.84375 0.015625 23.1875 0.09375 22.375 0.09375 C 21.550781 0.09375 20.359375 0.0625 18.796875 0 C 17.234375 -0.0625 15.570312 -0.09375 13.8125 -0.09375 C 11.75 -0.09375 9.742188 0 7.796875 0.1875 C 5.859375 0.375 4.101562 0.46875 2.53125 0.46875 Z M 24.53125 -26.5 L 39.09375 -26.5 C 39.96875 -26.5 40.40625 -26.65625 40.40625 -26.96875 C 40.40625 -27.09375 40.390625 -27.234375 40.359375 -27.390625 C 40.328125 -27.546875 40.28125 -27.71875 40.21875 -27.90625 L 32.890625 -50.84375 C 32.515625 -51.96875 32.234375 -52.53125 32.046875 -52.53125 C 31.921875 -52.53125 31.671875 -52 31.296875 -50.9375 L 22.75 -27.90625 C 22.625 -27.53125 22.5625 -27.28125 22.5625 -27.15625 C 22.5625 -26.84375 22.734375 -26.65625 23.078125 -26.59375 C 23.421875 -26.53125 23.90625 -26.5 24.53125 -26.5 Z M 24.53125 -26.5 "/></g></g></g><g fill="#ffffff" fill-opacity="1"><g transform="translate(84.657966, 194.016777)"><g><path d="M 4.140625 0.28125 C 3.578125 0.28125 3.117188 0.203125 2.765625 0.046875 C 2.421875 -0.109375 2.25 -0.375 2.25 -0.75 C 2.25 -1.25 2.4375 -1.578125 2.8125 -1.734375 C 3.195312 -1.890625 3.734375 -2.0625 4.421875 -2.25 C 5.359375 -2.5 6.265625 -2.84375 7.140625 -3.28125 C 8.015625 -3.726562 8.453125 -4.578125 8.453125 -5.828125 L 8.453125 -26.03125 C 8.453125 -27.726562 8.28125 -29.171875 7.9375 -30.359375 C 7.59375 -31.546875 6.609375 -32.359375 4.984375 -32.796875 C 4.734375 -32.921875 4.515625 -33.0625 4.328125 -33.21875 C 4.140625 -33.375 4.046875 -33.640625 4.046875 -34.015625 C 4.046875 -34.710938 4.328125 -35.09375 4.890625 -35.15625 C 7.078125 -35.71875 8.859375 -36.40625 10.234375 -37.21875 C 11.617188 -38.03125 12.96875 -38.9375 14.28125 -39.9375 C 14.46875 -40.0625 14.640625 -40.171875 14.796875 -40.265625 C 14.953125 -40.359375 15.125 -40.40625 15.3125 -40.40625 C 15.4375 -40.40625 15.546875 -40.34375 15.640625 -40.21875 C 15.742188 -40.09375 15.796875 -39.9375 15.796875 -39.75 C 15.796875 -39.3125 15.710938 -38.421875 15.546875 -37.078125 C 15.390625 -35.734375 15.3125 -34.617188 15.3125 -33.734375 C 15.3125 -33.484375 15.328125 -33.25 15.359375 -33.03125 C 15.390625 -32.8125 15.4375 -32.671875 15.5 -32.609375 C 17.695312 -34.679688 20.03125 -36.25 22.5 -37.3125 C 24.976562 -38.375 27.691406 -38.90625 30.640625 -38.90625 C 33.710938 -38.90625 36.25 -37.648438 38.25 -35.140625 C 40.257812 -32.640625 41.265625 -29.539062 41.265625 -25.84375 L 41.265625 -5.828125 C 41.265625 -4.578125 41.703125 -3.742188 42.578125 -3.328125 C 43.453125 -2.921875 44.359375 -2.5625 45.296875 -2.25 C 45.796875 -2.0625 46.28125 -1.859375 46.75 -1.640625 C 47.226562 -1.421875 47.46875 -1.0625 47.46875 -0.5625 C 47.46875 -0.1875 47.242188 0.046875 46.796875 0.140625 C 46.359375 0.234375 45.953125 0.28125 45.578125 0.28125 C 44.328125 0.28125 43.359375 0.234375 42.671875 0.140625 C 41.984375 0.046875 41.320312 -0.03125 40.6875 -0.09375 C 40.0625 -0.15625 39.1875 -0.1875 38.0625 -0.1875 C 37 -0.1875 36.117188 -0.15625 35.421875 -0.09375 C 34.734375 -0.03125 34.03125 0.046875 33.3125 0.140625 C 32.59375 0.234375 31.609375 0.28125 30.359375 0.28125 C 30.046875 0.28125 29.65625 0.234375 29.1875 0.140625 C 28.71875 0.046875 28.484375 -0.1875 28.484375 -0.5625 C 28.484375 -1.0625 28.71875 -1.421875 29.1875 -1.640625 C 29.65625 -1.859375 30.140625 -2.0625 30.640625 -2.25 C 31.578125 -2.5625 32.484375 -2.921875 33.359375 -3.328125 C 34.242188 -3.742188 34.6875 -4.578125 34.6875 -5.828125 L 34.6875 -25.5625 C 34.6875 -28.320312 33.914062 -30.46875 32.375 -32 C 30.84375 -33.53125 28.789062 -34.328125 26.21875 -34.390625 C 23.96875 -34.390625 21.992188 -34.03125 20.296875 -33.3125 C 18.609375 -32.59375 17.109375 -31.703125 15.796875 -30.640625 C 15.535156 -30.390625 15.34375 -30.0625 15.21875 -29.65625 C 15.09375 -29.25 15.03125 -28.859375 15.03125 -28.484375 L 15.03125 -5.828125 C 15.03125 -4.578125 15.46875 -3.726562 16.34375 -3.28125 C 17.226562 -2.84375 18.140625 -2.5 19.078125 -2.25 C 20.515625 -1.875 21.234375 -1.375 21.234375 -0.75 C 21.234375 -0.375 21.078125 -0.109375 20.765625 0.046875 C 20.453125 0.203125 19.984375 0.28125 19.359375 0.28125 C 18.109375 0.28125 17.117188 0.234375 16.390625 0.140625 C 15.671875 0.046875 15 -0.03125 14.375 -0.09375 C 13.75 -0.15625 12.875 -0.1875 11.75 -0.1875 C 10.6875 -0.1875 9.820312 -0.15625 9.15625 -0.09375 C 8.5 -0.03125 7.8125 0.046875 7.09375 0.140625 C 6.375 0.234375 5.390625 0.28125 4.140625 0.28125 Z M 4.140625 0.28125 "/></g></g></g><g fill="#ffffff" fill-opacity="1"><g transform="translate(134.275505, 194.016777)"><g><path d="M 18.328125 27.25 C 13.003906 27.25 8.789062 26.226562 5.6875 24.1875 C 2.582031 22.15625 1.03125 19.421875 1.03125 15.984375 C 1.03125 14.347656 1.28125 12.96875 1.78125 11.84375 C 2.28125 10.71875 3.066406 9.742188 4.140625 8.921875 C 5.015625 8.171875 6.1875 7.21875 7.65625 6.0625 C 9.132812 4.90625 10.65625 3.695312 12.21875 2.4375 L 16.171875 2.625 C 13.160156 4.570312 11.054688 6.421875 9.859375 8.171875 C 8.671875 9.929688 8.078125 12.0625 8.078125 14.5625 C 8.078125 17.070312 9.1875 19.1875 11.40625 20.90625 C 13.632812 22.632812 16.378906 23.5 19.640625 23.5 C 23.335938 23.5 26.316406 22.648438 28.578125 20.953125 C 30.140625 19.765625 31.359375 18.210938 32.234375 16.296875 C 33.109375 14.390625 33.546875 12.375 33.546875 10.25 C 33.546875 8.863281 33.0625 7.71875 32.09375 6.8125 C 31.125 5.90625 29.601562 5.171875 27.53125 4.609375 C 25.46875 4.046875 22.773438 3.671875 19.453125 3.484375 C 13.566406 3.035156 9.476562 2.25 7.1875 1.125 C 4.90625 0 3.765625 -1.753906 3.765625 -4.140625 C 3.765625 -4.765625 3.9375 -5.34375 4.28125 -5.875 C 4.625 -6.40625 5.171875 -6.984375 5.921875 -7.609375 C 7.359375 -8.734375 8.421875 -9.5625 9.109375 -10.09375 C 9.804688 -10.632812 10.328125 -11.09375 10.671875 -11.46875 C 11.015625 -11.84375 11.34375 -12.3125 11.65625 -12.875 L 14.84375 -11.28125 C 13.46875 -10.78125 12.3125 -10.101562 11.375 -9.25 C 10.4375 -8.40625 9.96875 -7.640625 9.96875 -6.953125 C 9.96875 -6.078125 10.4375 -5.3125 11.375 -4.65625 C 12.3125 -4 13.6875 -3.476562 15.5 -3.09375 C 17.320312 -2.71875 19.550781 -2.4375 22.1875 -2.25 C 27.945312 -1.9375 32.234375 -1 35.046875 0.5625 C 37.867188 2.125 39.28125 4.347656 39.28125 7.234375 C 39.28125 9.679688 38.671875 12.078125 37.453125 14.421875 C 36.234375 16.773438 34.617188 18.921875 32.609375 20.859375 C 30.609375 22.804688 28.367188 24.359375 25.890625 25.515625 C 23.421875 26.671875 20.898438 27.25 18.328125 27.25 Z M 19.453125 -13.25 C 21.835938 -13.25 23.8125 -14.453125 25.375 -16.859375 C 26.9375 -19.273438 27.71875 -22.269531 27.71875 -25.84375 C 27.71875 -27.664062 27.296875 -29.375 26.453125 -30.96875 C 25.609375 -32.5625 24.507812 -33.84375 23.15625 -34.8125 C 21.8125 -35.789062 20.359375 -36.28125 18.796875 -36.28125 C 17.359375 -36.28125 15.992188 -35.757812 14.703125 -34.71875 C 13.421875 -33.6875 12.390625 -32.359375 11.609375 -30.734375 C 10.828125 -29.109375 10.4375 -27.320312 10.4375 -25.375 C 10.4375 -23.1875 10.84375 -21.164062 11.65625 -19.3125 C 12.46875 -17.46875 13.5625 -15.992188 14.9375 -14.890625 C 16.320312 -13.796875 17.828125 -13.25 19.453125 -13.25 Z M 18.890625 -9.96875 C 16.316406 -9.96875 13.867188 -10.625 11.546875 -11.9375 C 9.234375 -13.25 7.34375 -14.984375 5.875 -17.140625 C 4.40625 -19.304688 3.671875 -21.675781 3.671875 -24.25 C 3.671875 -27.195312 4.4375 -29.78125 5.96875 -32 C 7.5 -34.226562 9.519531 -35.96875 12.03125 -37.21875 C 14.539062 -38.46875 17.203125 -39.09375 20.015625 -39.09375 C 21.835938 -39.09375 23.421875 -38.859375 24.765625 -38.390625 C 26.109375 -37.921875 27.441406 -37.5 28.765625 -37.125 C 30.265625 -36.6875 31.453125 -36.421875 32.328125 -36.328125 C 33.203125 -36.234375 34.113281 -36.1875 35.0625 -36.1875 C 35.8125 -36.1875 36.75 -36.234375 37.875 -36.328125 C 39 -36.421875 39.78125 -36.46875 40.21875 -36.46875 C 41.039062 -36.46875 41.453125 -36 41.453125 -35.0625 C 41.453125 -34.488281 41.132812 -33.890625 40.5 -33.265625 C 40.1875 -32.953125 39.9375 -32.796875 39.75 -32.796875 L 37.21875 -32.796875 C 35.53125 -32.796875 34.585938 -32.546875 34.390625 -32.046875 C 34.328125 -31.796875 34.25 -31.4375 34.15625 -30.96875 C 34.0625 -30.5 33.984375 -29.984375 33.921875 -29.421875 C 33.859375 -28.859375 33.828125 -28.289062 33.828125 -27.71875 C 33.828125 -24.53125 33.140625 -21.585938 31.765625 -18.890625 C 30.390625 -16.191406 28.570312 -14.03125 26.3125 -12.40625 C 24.0625 -10.78125 21.585938 -9.96875 18.890625 -9.96875 Z M 18.890625 -9.96875 "/></g></g></g><g fill="#ffffff" fill-opacity="1"><g transform="translate(175.153592, 194.016777)"><g><path d="M 20.015625 1.40625 C 16.566406 1.40625 13.554688 0.5625 10.984375 -1.125 C 8.421875 -2.820312 6.414062 -5.21875 4.96875 -8.3125 C 3.53125 -11.414062 2.8125 -15.003906 2.8125 -19.078125 C 2.8125 -22.710938 3.640625 -26.015625 5.296875 -28.984375 C 6.960938 -31.960938 9.175781 -34.359375 11.9375 -36.171875 C 14.695312 -37.992188 17.703125 -38.90625 20.953125 -38.90625 C 23.460938 -38.90625 25.6875 -38.40625 27.625 -37.40625 C 29.570312 -36.40625 31.09375 -35.007812 32.1875 -33.21875 C 33.28125 -31.4375 33.828125 -29.382812 33.828125 -27.0625 C 33.828125 -25.125 32.890625 -24.15625 31.015625 -24.15625 L 11.1875 -24.15625 C 10.3125 -24.15625 9.695312 -23.921875 9.34375 -23.453125 C 9 -22.984375 8.828125 -22.054688 8.828125 -20.671875 C 8.828125 -17.671875 9.484375 -14.929688 10.796875 -12.453125 C 12.117188 -9.972656 13.875 -8 16.0625 -6.53125 C 18.257812 -5.0625 20.675781 -4.328125 23.3125 -4.328125 C 25.1875 -4.328125 26.890625 -4.6875 28.421875 -5.40625 C 29.960938 -6.125 31.328125 -7.171875 32.515625 -8.546875 C 32.765625 -8.859375 32.953125 -9.0625 33.078125 -9.15625 C 33.203125 -9.25 33.359375 -9.296875 33.546875 -9.296875 C 34.046875 -9.296875 34.296875 -8.984375 34.296875 -8.359375 C 34.296875 -7.171875 33.734375 -5.859375 32.609375 -4.421875 C 31.671875 -3.222656 30.539062 -2.1875 29.21875 -1.3125 C 27.90625 -0.4375 26.46875 0.234375 24.90625 0.703125 C 23.34375 1.171875 21.710938 1.40625 20.015625 1.40625 Z M 11.375 -27.0625 L 19.921875 -27.0625 C 21.429688 -27.0625 22.71875 -27.09375 23.78125 -27.15625 C 24.84375 -27.21875 25.875 -27.34375 26.875 -27.53125 C 27.1875 -27.59375 27.390625 -27.796875 27.484375 -28.140625 C 27.578125 -28.492188 27.625 -28.984375 27.625 -29.609375 C 27.625 -31.421875 26.828125 -32.96875 25.234375 -34.25 C 23.640625 -35.539062 21.742188 -36.1875 19.546875 -36.1875 C 18.109375 -36.1875 16.664062 -35.757812 15.21875 -34.90625 C 13.78125 -34.0625 12.59375 -33.015625 11.65625 -31.765625 C 10.71875 -30.515625 10.25 -29.257812 10.25 -28 C 10.25 -27.375 10.625 -27.0625 11.375 -27.0625 Z M 11.375 -27.0625 "/></g></g></g><g fill="#ffffff" fill-opacity="1"><g transform="translate(211.792963, 194.016777)"><g/></g></g><g fill="#ffffff" fill-opacity="1"><g transform="translate(230.587491, 194.016777)"><g/></g></g><g fill="#ffffff" fill-opacity="1"><g transform="translate(249.382019, 194.016777)"><g/></g></g><g fill="#ffffff" fill-opacity="1"><g transform="translate(268.176546, 194.016777)"><g/></g></g><g fill="#ffffff" fill-opacity="1"><g transform="translate(286.971074, 194.016777)"><g/></g></g><g fill="#ffffff" fill-opacity="1"><g transform="translate(305.753894, 194.016777)"><g><path d="M 4.140625 0.28125 C 3.578125 0.28125 3.117188 0.203125 2.765625 0.046875 C 2.421875 -0.109375 2.25 -0.375 2.25 -0.75 C 2.25 -1.25 2.4375 -1.578125 2.8125 -1.734375 C 3.195312 -1.890625 3.734375 -2.0625 4.421875 -2.25 C 5.359375 -2.5 6.265625 -2.84375 7.140625 -3.28125 C 8.015625 -3.726562 8.453125 -4.578125 8.453125 -5.828125 L 8.453125 -26.03125 C 8.453125 -27.726562 8.28125 -29.171875 7.9375 -30.359375 C 7.59375 -31.546875 6.609375 -32.359375 4.984375 -32.796875 C 4.734375 -32.921875 4.515625 -33.0625 4.328125 -33.21875 C 4.140625 -33.375 4.046875 -33.640625 4.046875 -34.015625 C 4.046875 -34.710938 4.328125 -35.09375 4.890625 -35.15625 C 7.078125 -35.71875 8.859375 -36.40625 10.234375 -37.21875 C 11.617188 -38.03125 12.96875 -38.9375 14.28125 -39.9375 C 14.46875 -40.0625 14.640625 -40.171875 14.796875 -40.265625 C 14.953125 -40.359375 15.125 -40.40625 15.3125 -40.40625 C 15.4375 -40.40625 15.546875 -40.34375 15.640625 -40.21875 C 15.742188 -40.09375 15.796875 -39.9375 15.796875 -39.75 C 15.796875 -39.3125 15.710938 -38.421875 15.546875 -37.078125 C 15.390625 -35.734375 15.3125 -34.617188 15.3125 -33.734375 C 15.3125 -33.484375 15.328125 -33.25 15.359375 -33.03125 C 15.390625 -32.8125 15.4375 -32.671875 15.5 -32.609375 C 17.695312 -34.679688 20.03125 -36.25 22.5 -37.3125 C 24.976562 -38.375 27.691406 -38.90625 30.640625 -38.90625 C 33.710938 -38.90625 36.25 -37.648438 38.25 -35.140625 C 40.257812 -32.640625 41.265625 -29.539062 41.265625 -25.84375 L 41.265625 -5.828125 C 41.265625 -4.578125 41.703125 -3.742188 42.578125 -3.328125 C 43.453125 -2.921875 44.359375 -2.5625 45.296875 -2.25 C 45.796875 -2.0625 46.28125 -1.859375 46.75 -1.640625 C 47.226562 -1.421875 47.46875 -1.0625 47.46875 -0.5625 C 47.46875 -0.1875 47.242188 0.046875 46.796875 0.140625 C 46.359375 0.234375 45.953125 0.28125 45.578125 0.28125 C 44.328125 0.28125 43.359375 0.234375 42.671875 0.140625 C 41.984375 0.046875 41.320312 -0.03125 40.6875 -0.09375 C 40.0625 -0.15625 39.1875 -0.1875 38.0625 -0.1875 C 37 -0.1875 36.117188 -0.15625 35.421875 -0.09375 C 34.734375 -0.03125 34.03125 0.046875 33.3125 0.140625 C 32.59375 0.234375 31.609375 0.28125 30.359375 0.28125 C 30.046875 0.28125 29.65625 0.234375 29.1875 0.140625 C 28.71875 0.046875 28.484375 -0.1875 28.484375 -0.5625 C 28.484375 -1.0625 28.71875 -1.421875 29.1875 -1.640625 C 29.65625 -1.859375 30.140625 -2.0625 30.640625 -2.25 C 31.578125 -2.5625 32.484375 -2.921875 33.359375 -3.328125 C 34.242188 -3.742188 34.6875 -4.578125 34.6875 -5.828125 L 34.6875 -25.5625 C 34.6875 -28.320312 33.914062 -30.46875 32.375 -32 C 30.84375 -33.53125 28.789062 -34.328125 26.21875 -34.390625 C 23.96875 -34.390625 21.992188 -34.03125 20.296875 -33.3125 C 18.609375 -32.59375 17.109375 -31.703125 15.796875 -30.640625 C 15.535156 -30.390625 15.34375 -30.0625 15.21875 -29.65625 C 15.09375 -29.25 15.03125 -28.859375 15.03125 -28.484375 L 15.03125 -5.828125 C 15.03125 -4.578125 15.46875 -3.726562 16.34375 -3.28125 C 17.226562 -2.84375 18.140625 -2.5 19.078125 -2.25 C 20.515625 -1.875 21.234375 -1.375 21.234375 -0.75 C 21.234375 -0.375 21.078125 -0.109375 20.765625 0.046875 C 20.453125 0.203125 19.984375 0.28125 19.359375 0.28125 C 18.109375 0.28125 17.117188 0.234375 16.390625 0.140625 C 15.671875 0.046875 15 -0.03125 14.375 -0.09375 C 13.75 -0.15625 12.875 -0.1875 11.75 -0.1875 C 10.6875 -0.1875 9.820312 -0.15625 9.15625 -0.09375 C 8.5 -0.03125 7.8125 0.046875 7.09375 0.140625 C 6.375 0.234375 5.390625 0.28125 4.140625 0.28125 Z M 4.140625 0.28125 "/></g></g></g><g fill="#ffffff" fill-opacity="1"><g transform="translate(355.371079, 194.016777)"><g/></g></g><g clip-path="url(#7c93a555cf)"><path fill="#289dd2" d="M 269.765625 155.90625 C 268.183594 155.90625 266.902344 154.625 266.902344 153.042969 L 266.902344 135.859375 C 266.902344 134.28125 268.183594 132.996094 269.765625 132.996094 C 271.347656 132.996094 272.628906 134.28125 272.628906 135.859375 L 272.628906 153.042969 C 272.628906 154.625 271.347656 155.90625 269.765625 155.90625 Z M 269.765625 155.90625 " fill-opacity="1" fill-rule="nonzero"/></g><g clip-path="url(#981d9ed951)"><path fill="#289dd2" d="M 269.765625 195.996094 C 252.394531 195.996094 238.265625 181.867188 238.265625 164.496094 C 238.265625 152.078125 245.59375 140.78125 256.941406 135.71875 C 258.382812 135.070312 260.078125 135.722656 260.722656 137.164062 C 261.367188 138.609375 260.71875 140.304688 259.273438 140.949219 C 249.992188 145.09375 243.992188 154.335938 243.992188 164.496094 C 243.992188 178.707031 255.554688 190.269531 269.765625 190.269531 C 283.976562 190.269531 295.539062 178.707031 295.539062 164.496094 C 295.539062 154.25 289.46875 144.972656 280.074219 140.867188 C 278.625 140.234375 277.960938 138.546875 278.597656 137.097656 C 279.230469 135.652344 280.914062 134.988281 282.367188 135.617188 C 293.847656 140.636719 301.265625 151.972656 301.265625 164.496094 C 301.265625 181.867188 287.136719 195.996094 269.765625 195.996094 Z M 269.765625 195.996094 " fill-opacity="1" fill-rule="nonzero"/></g><path stroke-linecap="round" transform="matrix(-0.00178691, -0.750277, 0.749998, -0.00178625, 222.221388, 195.976058)" fill="none" stroke-linejoin="miter" d="M 3.998738 4.000814 L 79.975893 3.999542 " stroke="#289dd2" stroke-width="8" stroke-opacity="1" stroke-miterlimit="4"/></svg>